<svg xmlns="http://www.w3.org/2000/svg" viewBox="0 0 1000 620"><defs><linearGradient id="g" x2="0" y2="1"><stop stop-color="#17252b"/><stop offset="1" stop-color="#050809"/></linearGradient><linearGradient id="f"><stop stop-color="#5ee0ff"/><stop offset="1" stop-color="#225b75"/></linearGradient></defs><rect width="1000" height="620" fill="url(#g)"/><path d="M70 560L500 150L930 560" fill="#10181b" stroke="#31505a" stroke-width="5"/><path d="M170 560L500 230L830 560" fill="none" stroke="#24414c" stroke-width="3"/><g transform="translate(500 355)"><rect x="-150" y="-95" width="300" height="190" rx="8" fill="#14242b" stroke="#74dfff" stroke-width="5"/><rect x="-125" y="-70" width="250" height="140" fill="#081116" stroke="#8bcce0" stroke-width="2"/><circle r="48" fill="#0d2330" stroke="#d6b66c" stroke-width="5"/><path d="M0-34v68M-34 0h68" stroke="#8be4ff" stroke-width="3"/><path d="M-220-125L-160-90M220-125L160-90" stroke="#54717c" stroke-width="9"/></g><g fill="#65dfff" font-family="monospace"><text x="30" y="40" font-size="22">CAM-01 / GALLERY / 02:00:48</text><text x="30" y="585" font-size="16">3D RECON · GLASS REFLECTION · DISPLAY 07</text></g><g stroke="#67dfff" stroke-opacity=".25"><path d="M0 110h1000M0 180h1000M0 250h1000M0 320h1000M0 390h1000M0 460h1000"/></g></svg>