<svg xmlns="http://www.w3.org/2000/svg" viewBox="0 0 720 900"><defs><linearGradient id="g" x1="0" y1="0" x2="1" y2="1"><stop stop-color="#20252a"/><stop offset="1" stop-color="#090b0d"/></linearGradient><filter id="grain"><feTurbulence baseFrequency=".8" numOctaves="3" stitchTiles="stitch"/><feColorMatrix values=".2 0 0 0 0 .2 0 0 0 .2 0 0 0 .2 0 0 .15 0"/></filter></defs><rect width="720" height="900" fill="url(#g)"/><rect width="720" height="900" filter="url(#grain)" opacity=".22"/><path d="M0 690Q180 560 360 680t360 0v220H0z" fill="#0c0e10"/><ellipse cx="360" cy="350" rx="132" ry="158" fill="#9b806e"/><path d="M226 350q10-190 136-190t136 190q-62-88-272 0z" fill="#17191b"/><path d="M270 355q35-22 70 0M380 355q35-22 70 0" fill="none" stroke="#29221f" stroke-width="13" stroke-linecap="round"/><circle cx="314" cy="356" r="7" fill="#111"/><circle cx="406" cy="356" r="7" fill="#111"/><path d="M325 455q35 24 70 0" fill="none" stroke="#4d3731" stroke-width="8" stroke-linecap="round"/><path d="M215 555q145-95 290 0l72 345H143z" fill="#31363a"/><text x="360" y="835" text-anchor="middle" fill="#c9c1b2" font-family="monospace" font-size="22" letter-spacing="5">CASE PHOTO 01</text></svg>